<svg width="184" height="87" viewBox="0 0 184 87" fill="none" xmlns="http://www.w3.org/2000/svg">
<path d="M7.80645 62H6.66895V0.749996H9.64395L46.0439 57.3625V0.749996H47.1814V62H40.7939L7.80645 11.25V62ZM53.7446 32.8625C53.7446 22.2458 56.3113 14.1958 61.4446 8.7125C66.6363 3.17083 73.2863 0.399995 81.3946 0.399995C89.503 0.399995 95.9488 2.79166 100.732 7.575C105.574 12.3583 107.995 20 107.995 30.5C107.995 41 105.428 48.9333 100.295 54.3C95.1613 59.6667 88.3071 62.35 79.7321 62.35C72.3238 62.35 66.2571 60.2208 61.5321 55.9625C59.0821 53.7458 57.1571 50.6833 55.7571 46.775C54.4155 42.8083 53.7446 38.1708 53.7446 32.8625ZM81.1321 1.275C75.2405 1.275 70.3988 3.9 66.6071 9.15C62.8738 14.4 61.0071 22.1 61.0071 32.25C61.0071 42.4 62.7863 49.8083 66.3446 54.475C69.903 59.1417 74.628 61.475 80.5196 61.475C86.4696 61.475 91.3113 58.85 95.0446 53.6C98.8363 48.2917 100.732 40.6208 100.732 30.5875C100.732 20.4958 98.9238 13.0875 95.3071 8.3625C91.7488 3.6375 87.0238 1.275 81.1321 1.275ZM114.991 1.45C121.758 0.98333 127.737 0.749996 132.929 0.749996C147.337 0.749996 154.541 5.5625 154.541 15.1875C154.541 18.8042 153.491 21.925 151.391 24.55C149.291 27.1167 145.937 28.8667 141.329 29.8C145.762 30.325 149.262 31.6667 151.829 33.825C154.395 35.9833 155.679 39.7458 155.679 45.1125C155.679 56.3708 148.475 62 134.066 62H114.991V1.45ZM122.254 61.125H134.066C139.258 61.125 142.933 59.7833 145.091 57.1C147.308 54.3583 148.416 50.1875 148.416 44.5875C148.416 38.9875 147.308 35.2542 145.091 33.3875C142.875 31.5208 139.579 30.5292 135.204 30.4125H122.254V61.125ZM132.929 1.62499C129.545 1.62499 125.987 1.82916 122.254 2.2375V29.5375H135.204C143.429 29.1875 147.541 24.4625 147.541 15.3625C147.541 10.9292 146.316 7.54583 143.866 5.2125C141.416 2.82083 137.77 1.62499 132.929 1.62499ZM162.269 1.62499V0.749996H177.844V1.62499H173.556V61.125H177.844V62H162.269V61.125H166.294V1.62499H162.269Z" fill="#1A8029"/>
<path d="M9.30839 70.6752C8.66306 70.6752 8.15852 70.9451 7.79479 71.4848C7.44279 72.0128 7.26679 72.8869 7.26679 74.1072V75.1632C7.26679 76.3952 7.44279 77.2811 7.79479 77.8208C8.15852 78.3488 8.74519 78.6128 9.55479 78.6128C10.1063 78.6128 10.5521 78.472 10.8924 78.1904C11.2327 77.9088 11.4615 77.4219 11.5788 76.7296L12.5116 76.9936C12.3004 77.7915 11.9132 78.3547 11.35 78.6832C10.7868 79.0117 10.1591 79.176 9.46679 79.176C8.19959 79.176 7.24919 78.7829 6.61559 77.9968C5.99372 77.1989 5.68279 76.1371 5.68279 74.8112V74.4592C5.68279 73.1451 5.99372 72.0949 6.61559 71.3088C7.23746 70.5109 8.13506 70.112 9.30839 70.112C10.0593 70.112 10.6812 70.2587 11.174 70.552C11.6785 70.8453 12.0364 71.2443 12.2476 71.7488C12.4588 72.2416 12.5175 72.7872 12.4236 73.3856L11.0332 73.5968C11.1623 72.6581 11.0743 71.9365 10.7692 71.432C10.4759 70.9275 9.98892 70.6752 9.30839 70.6752ZM20.7476 79.1232C19.8324 79.1232 19.2926 78.7008 19.1284 77.856C18.7177 78.3253 18.266 78.6656 17.7732 78.8768C17.2804 79.0763 16.7934 79.176 16.3124 79.176C15.491 79.176 14.8868 78.9472 14.4996 78.4896C14.1124 78.032 13.9188 77.4805 13.9188 76.8352C13.9188 76.1429 14.1534 75.5973 14.6228 75.1984C15.1038 74.7877 15.931 74.5824 17.1044 74.5824H19.0932V73.1568C19.0932 72.2181 18.9289 71.5728 18.6004 71.2208C18.2836 70.8571 17.8494 70.6752 17.298 70.6752C16.946 70.6752 16.6292 70.7456 16.3476 70.8864C16.066 71.0272 15.8606 71.2853 15.7316 71.6608C15.6142 72.0245 15.6025 72.5584 15.6964 73.2624L14.306 73.0512C14.2473 72.4997 14.3177 72.0069 14.5172 71.5728C14.7284 71.1269 15.0686 70.7749 15.538 70.5168C16.019 70.2469 16.6174 70.112 17.3332 70.112C18.1897 70.112 18.8468 70.2587 19.3044 70.552C19.762 70.8336 20.0788 71.2032 20.2548 71.6608C20.4425 72.1184 20.5364 72.6171 20.5364 73.1568V77.1168C20.5364 77.7152 20.6009 78.0907 20.73 78.2432C20.8708 78.3957 21.0233 78.472 21.1876 78.472C21.2932 78.472 21.4046 78.4485 21.522 78.4016C21.6393 78.3429 21.7684 78.2549 21.9092 78.1376L22.226 78.5776C22.05 78.7301 21.8388 78.8592 21.5924 78.9648C21.3577 79.0704 21.0761 79.1232 20.7476 79.1232ZM16.8052 78.4368C17.1337 78.4368 17.4857 78.3488 17.8612 78.1728C18.2484 77.9851 18.659 77.6155 19.0932 77.064V75.1456H17.298C16.6409 75.1456 16.1598 75.2805 15.8548 75.5504C15.5614 75.8085 15.4148 76.2133 15.4148 76.7648C15.4148 77.2928 15.5262 77.7035 15.7492 77.9968C15.9838 78.2901 16.3358 78.4368 16.8052 78.4368ZM32.5227 78.5424V79H28.0171V78.5424L28.9851 78.4368C29.1728 78.4133 29.2843 78.3664 29.3195 78.296C29.3547 78.2256 29.3723 77.9851 29.3723 77.5744V70.8512H25.2715V77.5744C25.2715 77.9851 25.2891 78.2256 25.3243 78.296C25.3595 78.3664 25.4709 78.4133 25.6587 78.4368L26.6267 78.5424V79H22.4731V78.5424L23.4411 78.4368C23.6288 78.4133 23.7403 78.3664 23.7755 78.296C23.8107 78.2256 23.8283 77.9851 23.8283 77.5744V71.7136C23.8283 71.3029 23.8107 71.0624 23.7755 70.992C23.752 70.9216 23.6405 70.8747 23.4411 70.8512L22.4731 70.7632V70.288H23.8283V69.6544C23.8283 69.0208 23.9397 68.4224 24.1627 67.8592C24.3973 67.296 24.7728 66.8443 25.2891 66.504C25.8171 66.152 26.5152 65.976 27.3835 65.976C28.4747 65.976 29.2901 66.328 29.8299 67.032C30.0411 66.6565 30.3403 66.3573 30.7275 66.1344C31.1264 65.9115 31.6368 65.8 32.2587 65.8C33.2325 65.8 33.9541 66.064 34.4235 66.592C34.8928 67.12 35.0629 67.7653 34.9339 68.528L33.5611 68.7216C33.6667 67.912 33.608 67.3195 33.3851 66.944C33.1739 66.5568 32.7984 66.3632 32.2587 66.3632C31.9536 66.3632 31.6896 66.4336 31.4667 66.5744C31.2555 66.7035 31.0912 66.944 30.9739 67.296C30.8683 67.6363 30.8155 68.1291 30.8155 68.7744V70.288H33.6139V70.8512H30.8155V77.5744C30.8155 77.9851 30.8331 78.2315 30.8683 78.3136C30.9035 78.384 31.0149 78.4251 31.2027 78.4368L32.5227 78.5424ZM25.2715 69.408V70.288H29.3723V69.4608C29.3723 68.3461 29.2021 67.5835 28.8619 67.1728C28.5333 66.7504 28.0405 66.5392 27.3835 66.5392C26.9963 66.5392 26.6443 66.6213 26.3275 66.7856C26.0107 66.9381 25.7525 67.2197 25.5531 67.6304C25.3653 68.0411 25.2715 68.6336 25.2715 69.408ZM41.2161 76.9936C41.0049 77.7915 40.606 78.3547 40.0193 78.6832C39.4444 79.0117 38.8049 79.176 38.1009 79.176C36.7985 79.176 35.8246 78.7829 35.1793 77.9968C34.534 77.1989 34.2113 76.1371 34.2113 74.8112V74.4592C34.2113 73.1451 34.5222 72.0949 35.1441 71.3088C35.766 70.5109 36.6694 70.112 37.8545 70.112C38.4881 70.112 39.063 70.2411 39.5793 70.4992C40.1073 70.7573 40.5238 71.1387 40.8289 71.6432C41.1457 72.1477 41.3041 72.7755 41.3041 73.5264C41.3041 73.8784 41.2689 74.248 41.1985 74.6352H35.7953V75.1632C35.7953 76.3952 35.983 77.2811 36.3585 77.8208C36.7457 78.3488 37.3676 78.6128 38.2241 78.6128C38.7638 78.6128 39.2097 78.472 39.5617 78.1904C39.9254 77.9088 40.166 77.4219 40.2833 76.7296L41.2161 76.9936ZM37.8545 70.6752C37.1622 70.6752 36.646 70.9392 36.3057 71.4672C35.9654 71.9952 35.7953 72.8635 35.7953 74.072H39.7553V74.0192C39.7788 73.8667 39.7964 73.72 39.8081 73.5792C39.8198 73.4267 39.8257 73.2917 39.8257 73.1744C39.8257 72.2944 39.6438 71.6608 39.2801 71.2736C38.9164 70.8747 38.4412 70.6752 37.8545 70.6752ZM119.205 70.6752C118.56 70.6752 118.055 70.9451 117.692 71.4848C117.34 72.0128 117.164 72.8869 117.164 74.1072V75.1632C117.164 76.3952 117.34 77.2811 117.692 77.8208C118.055 78.3488 118.642 78.6128 119.452 78.6128C120.003 78.6128 120.449 78.472 120.789 78.1904C121.13 77.9088 121.358 77.4219 121.476 76.7296L122.408 76.9936C122.197 77.7915 121.81 78.3547 121.247 78.6832C120.684 79.0117 120.056 79.176 119.364 79.176C118.096 79.176 117.146 78.7829 116.512 77.9968C115.891 77.1989 115.58 76.1371 115.58 74.8112V74.4592C115.58 73.1451 115.891 72.0949 116.512 71.3088C117.134 70.5109 118.032 70.112 119.205 70.112C119.956 70.112 120.578 70.2587 121.071 70.552C121.575 70.8453 121.933 71.2443 122.144 71.7488C122.356 72.2416 122.414 72.7872 122.32 73.3856L120.93 73.5968C121.059 72.6581 120.971 71.9365 120.666 71.432C120.373 70.9275 119.886 70.6752 119.205 70.6752ZM130.644 79.1232C129.729 79.1232 129.19 78.7008 129.025 77.856C128.615 78.3253 128.163 78.6656 127.67 78.8768C127.177 79.0763 126.69 79.176 126.209 79.176C125.388 79.176 124.784 78.9472 124.396 78.4896C124.009 78.032 123.816 77.4805 123.816 76.8352C123.816 76.1429 124.05 75.5973 124.52 75.1984C125.001 74.7877 125.828 74.5824 127.001 74.5824H128.99V73.1568C128.99 72.2181 128.826 71.5728 128.497 71.2208C128.18 70.8571 127.746 70.6752 127.195 70.6752C126.843 70.6752 126.526 70.7456 126.244 70.8864C125.963 71.0272 125.758 71.2853 125.628 71.6608C125.511 72.0245 125.499 72.5584 125.593 73.2624L124.203 73.0512C124.144 72.4997 124.215 72.0069 124.414 71.5728C124.625 71.1269 124.966 70.7749 125.435 70.5168C125.916 70.2469 126.514 70.112 127.23 70.112C128.087 70.112 128.744 70.2587 129.201 70.552C129.659 70.8336 129.976 71.2032 130.152 71.6608C130.339 72.1184 130.433 72.6171 130.433 73.1568V77.1168C130.433 77.7152 130.498 78.0907 130.627 78.2432C130.768 78.3957 130.92 78.472 131.084 78.472C131.19 78.472 131.302 78.4485 131.419 78.4016C131.536 78.3429 131.665 78.2549 131.806 78.1376L132.123 78.5776C131.947 78.7301 131.736 78.8592 131.489 78.9648C131.255 79.0704 130.973 79.1232 130.644 79.1232ZM126.702 78.4368C127.031 78.4368 127.383 78.3488 127.758 78.1728C128.145 77.9851 128.556 77.6155 128.99 77.064V75.1456H127.195C126.538 75.1456 126.057 75.2805 125.752 75.5504C125.458 75.8085 125.312 76.2133 125.312 76.7648C125.312 77.2928 125.423 77.7035 125.646 77.9968C125.881 78.2901 126.233 78.4368 126.702 78.4368ZM138.178 77.2048C138.002 77.8853 137.726 78.384 137.351 78.7008C136.975 79.0176 136.494 79.176 135.908 79.176C135.344 79.176 134.887 79.0528 134.535 78.8064C134.183 78.5483 133.925 78.2139 133.76 77.8032C133.596 77.3925 133.514 76.9643 133.514 76.5184V71.7136C133.514 71.3029 133.496 71.0624 133.461 70.992C133.438 70.9216 133.326 70.8747 133.127 70.8512L132.159 70.7632V70.288H133.514V67.9824L134.957 67.6832V70.288H137.826V70.8512H134.957V76.6592C134.957 77.3984 135.057 77.9088 135.256 78.1904C135.468 78.472 135.743 78.6128 136.084 78.6128C136.424 78.6128 136.682 78.4837 136.858 78.2256C137.046 77.9675 137.181 77.5451 137.263 76.9584L138.178 77.2048ZM146.146 76.9936C145.935 77.7915 145.536 78.3547 144.949 78.6832C144.374 79.0117 143.735 79.176 143.031 79.176C141.728 79.176 140.754 78.7829 140.109 77.9968C139.464 77.1989 139.141 76.1371 139.141 74.8112V74.4592C139.141 73.1451 139.452 72.0949 140.074 71.3088C140.696 70.5109 141.599 70.112 142.784 70.112C143.418 70.112 143.993 70.2411 144.509 70.4992C145.037 70.7573 145.454 71.1387 145.759 71.6432C146.075 72.1477 146.234 72.7755 146.234 73.5264C146.234 73.8784 146.199 74.248 146.128 74.6352H140.725V75.1632C140.725 76.3952 140.913 77.2811 141.288 77.8208C141.675 78.3488 142.297 78.6128 143.154 78.6128C143.694 78.6128 144.139 78.472 144.491 78.1904C144.855 77.9088 145.096 77.4219 145.213 76.7296L146.146 76.9936ZM142.784 70.6752C142.092 70.6752 141.576 70.9392 141.235 71.4672C140.895 71.9952 140.725 72.8635 140.725 74.072H144.685V74.0192C144.708 73.8667 144.726 73.72 144.738 73.5792C144.75 73.4267 144.755 73.2917 144.755 73.1744C144.755 72.2944 144.574 71.6608 144.21 71.2736C143.846 70.8747 143.371 70.6752 142.784 70.6752ZM147.367 70.7632V70.288H150.077V71.696C150.488 71.1445 150.899 70.7456 151.309 70.4992C151.732 70.2411 152.16 70.112 152.594 70.112C152.97 70.112 153.322 70.2235 153.65 70.4464C153.979 70.6693 154.255 71.0272 154.477 71.52L153.333 72.2064C153.157 71.784 152.958 71.4907 152.735 71.3264C152.512 71.1621 152.266 71.08 151.996 71.08C151.703 71.08 151.409 71.1739 151.116 71.3616C150.834 71.5493 150.517 71.9013 150.165 72.4176V77.5744C150.165 77.9851 150.183 78.2315 150.218 78.3136C150.253 78.384 150.365 78.4251 150.553 78.4368L151.873 78.5424V79H147.367V78.5424L148.335 78.4368C148.523 78.4133 148.634 78.3664 148.669 78.296C148.705 78.2256 148.722 77.9851 148.722 77.5744V71.7136C148.722 71.3029 148.705 71.0624 148.669 70.992C148.634 70.9216 148.523 70.8747 148.335 70.8512L147.367 70.7632ZM156.633 68.3168C156.351 68.3168 156.116 68.2288 155.929 68.0528C155.753 67.8651 155.665 67.6245 155.665 67.3312C155.665 67.0496 155.753 66.8208 155.929 66.6448C156.116 66.4688 156.351 66.3808 156.633 66.3808C156.914 66.3808 157.143 66.4688 157.319 66.6448C157.507 66.8208 157.601 67.0496 157.601 67.3312C157.601 67.6245 157.507 67.8651 157.319 68.0528C157.143 68.2288 156.914 68.3168 156.633 68.3168ZM154.573 70.7632V70.288H157.372V77.5744C157.372 77.9851 157.389 78.2256 157.425 78.296C157.46 78.3664 157.571 78.4133 157.759 78.4368L158.727 78.5424V79H154.573V78.5424L155.541 78.4368C155.729 78.4133 155.841 78.3664 155.876 78.296C155.911 78.2256 155.929 77.9851 155.929 77.5744V71.7136C155.929 71.3029 155.911 71.0624 155.876 70.992C155.841 70.9216 155.729 70.8747 155.541 70.8512L154.573 70.7632ZM169.143 78.5424V79H164.99V78.5424L165.958 78.4368C166.145 78.4133 166.257 78.3664 166.292 78.296C166.327 78.2256 166.345 77.9851 166.345 77.5744V73.192C166.345 72.3237 166.204 71.7136 165.922 71.3616C165.641 70.9979 165.236 70.816 164.708 70.816C164.321 70.816 163.893 70.9333 163.423 71.168C162.954 71.4027 162.514 71.8603 162.103 72.5408V77.5744C162.103 77.9851 162.121 78.2256 162.156 78.296C162.191 78.3664 162.303 78.4133 162.49 78.4368L163.458 78.5424V79H159.305V78.5424L160.273 78.4368C160.461 78.4133 160.572 78.3664 160.607 78.296C160.642 78.2256 160.66 77.9851 160.66 77.5744V71.7136C160.66 71.3029 160.642 71.0624 160.607 70.992C160.572 70.9216 160.461 70.8747 160.273 70.8512L159.305 70.7632V70.288H162.015V71.7136C162.438 71.1504 162.913 70.7456 163.441 70.4992C163.981 70.2411 164.52 70.112 165.06 70.112C165.928 70.112 166.597 70.3819 167.066 70.9216C167.547 71.4496 167.788 72.2005 167.788 73.1744V77.5744C167.788 77.9851 167.806 78.2256 167.841 78.296C167.876 78.3664 167.987 78.4133 168.175 78.4368L169.143 78.5424ZM177.841 80.0208C177.841 80.9595 177.495 81.6752 176.803 82.168C176.122 82.6725 175.172 82.9248 173.951 82.9248C172.614 82.9248 171.634 82.6901 171.012 82.2208C170.39 81.7632 170.068 81.1824 170.044 80.4784L171.347 80.2144C171.3 80.8597 171.47 81.376 171.857 81.7632C172.256 82.1621 172.954 82.3616 173.951 82.3616C174.843 82.3616 175.559 82.1973 176.099 81.8688C176.65 81.5403 176.926 81.0592 176.926 80.4256C176.926 79.9563 176.767 79.6043 176.451 79.3696C176.134 79.1349 175.612 79.0176 174.884 79.0176H172.79C172.004 79.0176 171.452 78.8533 171.135 78.5248C170.819 78.1845 170.66 77.8091 170.66 77.3984C170.66 77.0581 170.742 76.7413 170.907 76.448C171.083 76.1429 171.358 75.8437 171.734 75.5504C171.264 75.3275 170.883 75.0048 170.59 74.5824C170.296 74.1483 170.15 73.6261 170.15 73.016C170.15 72.3707 170.296 71.8368 170.59 71.4144C170.895 70.9803 171.294 70.6576 171.787 70.4464C172.291 70.2235 172.848 70.112 173.459 70.112H173.758C174.403 70.112 174.978 70.2293 175.483 70.464L178.035 69.584L178.228 70.904H176.169C176.439 71.1387 176.65 71.432 176.803 71.784C176.967 72.136 177.049 72.5467 177.049 73.016C177.049 73.6379 176.896 74.1659 176.591 74.6C176.298 75.0341 175.905 75.3627 175.412 75.5856C174.919 75.7968 174.368 75.9024 173.758 75.9024H173.459C173.259 75.9024 173.065 75.8907 172.878 75.8672C172.69 75.8437 172.508 75.8085 172.332 75.7616C172.074 75.9376 171.886 76.1195 171.769 76.3072C171.663 76.4949 171.611 76.6885 171.611 76.888C171.611 77.1227 171.693 77.3104 171.857 77.4512C172.033 77.592 172.309 77.6624 172.684 77.6624H174.972C175.899 77.6624 176.609 77.8619 177.102 78.2608C177.595 78.6597 177.841 79.2464 177.841 80.0208ZM173.758 75.3392C174.075 75.3392 174.362 75.2688 174.62 75.128C174.89 74.9872 175.107 74.7525 175.271 74.424C175.436 74.0837 175.518 73.6144 175.518 73.016C175.518 72.4059 175.436 71.9365 175.271 71.608C175.107 71.2677 174.89 71.0272 174.62 70.8864C174.362 70.7456 174.075 70.6752 173.758 70.6752H173.459C173.142 70.6752 172.848 70.7456 172.579 70.8864C172.309 71.0272 172.092 71.2677 171.927 71.608C171.763 71.9365 171.681 72.4059 171.681 73.016C171.681 73.6144 171.763 74.0837 171.927 74.424C172.092 74.7525 172.309 74.9872 172.579 75.128C172.848 75.2688 173.142 75.3392 173.459 75.3392H173.758Z" fill="#1A8029"/>
</svg>
