<svg width="186" height="119" viewBox="0 0 186 119" fill="none" xmlns="http://www.w3.org/2000/svg">
<path d="M1.45163 1.41864L107.035 9.06167L184.683 81.0127L127.572 117.529L13.7419 68.0825L1.45163 1.41864Z" fill="white" stroke="#FF0000" stroke-width="1.5"/>
<path d="M22.4347 48V33.4545H25.0696V39.6122H31.8097V33.4545H34.4517V48H31.8097V41.821H25.0696V48H22.4347ZM38.5854 48H35.7729L40.8936 33.4545H44.1464L49.2743 48H46.4618L42.5768 36.4375H42.4632L38.5854 48ZM38.6777 42.2969H46.3482V44.4134H38.6777V42.2969ZM50.5901 48V33.4545H56.1583C57.2094 33.4545 58.083 33.6203 58.779 33.9517C59.4798 34.2784 60.003 34.7259 60.3487 35.294C60.699 35.8622 60.8742 36.5062 60.8742 37.2259C60.8742 37.8177 60.7606 38.3243 60.5333 38.7457C60.306 39.1624 60.0006 39.5009 59.6171 39.7614C59.2336 40.0218 58.8051 40.2088 58.3316 40.3224V40.4645C58.8477 40.4929 59.3425 40.6515 59.816 40.9403C60.2942 41.2244 60.6848 41.6269 60.9879 42.1477C61.2909 42.6686 61.4424 43.2983 61.4424 44.0369C61.4424 44.7898 61.2601 45.4669 60.8955 46.0682C60.5309 46.6648 59.9817 47.1359 59.2478 47.4815C58.5139 47.8272 57.5906 48 56.4779 48H50.5901ZM53.2251 45.7983H56.0589C57.0153 45.7983 57.7042 45.616 58.1256 45.2514C58.5518 44.8821 58.7648 44.4086 58.7648 43.831C58.7648 43.4001 58.6583 43.0118 58.4452 42.6662C58.2322 42.3158 57.9291 42.0412 57.5361 41.8423C57.1432 41.6387 56.6744 41.5369 56.1299 41.5369H53.2251V45.7983ZM53.2251 39.6406H55.8316C56.2862 39.6406 56.6957 39.5578 57.0603 39.392C57.4249 39.2216 57.7113 38.9825 57.9197 38.6747C58.1327 38.3622 58.2393 37.9929 58.2393 37.5668C58.2393 37.0033 58.0404 36.5393 57.6427 36.1747C57.2497 35.8101 56.6649 35.6278 55.8884 35.6278H53.2251V39.6406ZM63.1347 33.4545H65.7483V43.3693H65.8832L72.7227 33.4545H75.0878V48H72.4528V38.0923H72.3321L65.4713 48H63.1347V33.4545ZM86.7126 33.4545V35.6634H79.9938V48H77.3589V33.4545H86.7126ZM88.451 48H85.6385L90.7592 33.4545H94.0121L99.1399 48H96.3274L92.4425 36.4375H92.3288L88.451 48ZM88.5433 42.2969H96.2138V44.4134H88.5433V42.2969ZM98.0587 35.6634V33.4545H109.664V35.6634H105.168V48H102.554V35.6634H98.0587ZM123.654 40.7273C123.654 42.2945 123.36 43.6368 122.773 44.7543C122.191 45.867 121.395 46.7192 120.387 47.3111C119.383 47.9029 118.244 48.1989 116.97 48.1989C115.697 48.1989 114.556 47.9029 113.547 47.3111C112.543 46.7145 111.748 45.8598 111.161 44.7472C110.578 43.6297 110.287 42.2898 110.287 40.7273C110.287 39.16 110.578 37.8201 111.161 36.7074C111.748 35.59 112.543 34.7353 113.547 34.1435C114.556 33.5516 115.697 33.2557 116.97 33.2557C118.244 33.2557 119.383 33.5516 120.387 34.1435C121.395 34.7353 122.191 35.59 122.773 36.7074C123.36 37.8201 123.654 39.16 123.654 40.7273ZM121.005 40.7273C121.005 39.6241 120.832 38.6937 120.486 37.9361C120.145 37.1738 119.672 36.5985 119.066 36.2102C118.46 35.8172 117.761 35.6207 116.97 35.6207C116.18 35.6207 115.481 35.8172 114.875 36.2102C114.269 36.5985 113.793 37.1738 113.448 37.9361C113.107 38.6937 112.936 39.6241 112.936 40.7273C112.936 41.8305 113.107 42.7633 113.448 43.5256C113.793 44.2831 114.269 44.8584 114.875 45.2514C115.481 45.6397 116.18 45.8338 116.97 45.8338C117.761 45.8338 118.46 45.6397 119.066 45.2514C119.672 44.8584 120.145 44.2831 120.486 43.5256C120.832 42.7633 121.005 41.8305 121.005 40.7273ZM125.545 48V33.4545H130.999C132.117 33.4545 133.054 33.6629 133.812 34.0795C134.574 34.4962 135.149 35.0691 135.538 35.7983C135.931 36.5227 136.127 37.3466 136.127 38.2699C136.127 39.2027 135.931 40.0312 135.538 40.7557C135.145 41.4801 134.565 42.0507 133.798 42.4673C133.031 42.8793 132.086 43.0852 130.964 43.0852H127.349V40.919H130.609C131.262 40.919 131.797 40.8054 132.214 40.5781C132.631 40.3509 132.938 40.0384 133.137 39.6406C133.341 39.2429 133.443 38.786 133.443 38.2699C133.443 37.7538 133.341 37.2992 133.137 36.9062C132.938 36.5133 132.628 36.2079 132.207 35.9901C131.79 35.7675 131.253 35.6562 130.595 35.6562H128.18V48H125.545ZM22.4347 47.4545H25.0483V57.3693H25.1832L32.0227 47.4545H34.3878V62H31.7528V52.0923H31.6321L24.7713 62H22.4347V47.4545ZM36.6589 62V47.4545H39.2938V53.6122H46.0339V47.4545H48.6759V62H46.0339V55.821H39.2938V62H36.6589ZM61.1974 47.4545V62H58.6121V47.4545H61.1974ZM50.0681 62L54.6846 54.358L50.3309 47.4545H53.5624L56.9999 53.598H62.8735L66.2542 47.4545H69.4715L65.1817 54.3509L69.7414 62H66.6235L63.2499 56.0412H56.5951L53.1576 62H50.0681ZM71.1425 62V47.4545H80.6027V49.6634H73.7774V53.6122H80.1126V55.821H73.7774V59.7912H80.6595V62H71.1425ZM82.6909 62V47.4545H85.3259V53.6122H92.0659V47.4545H94.708V62H92.0659V55.821H85.3259V62H82.6909ZM96.9737 62V47.4545H106.434V49.6634H99.6087V53.6122H105.944V55.821H99.6087V59.7912H106.491V62H96.9737ZM108.522 62V47.4545H113.977C115.094 47.4545 116.032 47.6629 116.789 48.0795C117.552 48.4962 118.127 49.0691 118.515 49.7983C118.908 50.5227 119.105 51.3466 119.105 52.2699C119.105 53.2027 118.908 54.0312 118.515 54.7557C118.122 55.4801 117.542 56.0507 116.775 56.4673C116.008 56.8793 115.063 57.0852 113.941 57.0852H110.326V54.919H113.586C114.239 54.919 114.775 54.8054 115.191 54.5781C115.608 54.3509 115.916 54.0384 116.114 53.6406C116.318 53.2429 116.42 52.786 116.42 52.2699C116.42 51.7538 116.318 51.2992 116.114 50.9062C115.916 50.5133 115.605 50.2079 115.184 49.9901C114.767 49.7675 114.23 49.6562 113.572 49.6562H111.157V62H108.522ZM120.793 47.4545H123.407V57.3693H123.542L130.381 47.4545H132.746V62H130.111V52.0923H129.991L123.13 62H120.793V47.4545ZM145.756 62H143.114V49.6562H140.699C140.046 49.6562 139.508 49.7533 139.087 49.9474C138.67 50.1368 138.36 50.4162 138.157 50.7855C137.958 51.1501 137.858 51.5904 137.858 52.1065C137.858 52.6226 137.958 53.0582 138.157 53.4134C138.356 53.7637 138.663 54.0312 139.08 54.2159C139.501 54.3958 140.036 54.4858 140.685 54.4858H144.222V56.6733H140.33C139.213 56.6733 138.27 56.4886 137.503 56.1193C136.736 55.7453 136.154 55.2173 135.756 54.5355C135.363 53.849 135.167 53.0393 135.167 52.1065C135.167 51.1785 135.361 50.3665 135.749 49.6705C136.142 48.9697 136.72 48.4252 137.482 48.0369C138.244 47.6487 139.182 47.4545 140.294 47.4545H145.756V62ZM138.235 55.4091H141.111L137.574 62H134.634L138.235 55.4091Z" fill="#FA0000"/>
</svg>
