<svg width="93" height="9" viewBox="0 0 93 9" fill="none" xmlns="http://www.w3.org/2000/svg">
<path d="M3.28174 0.195801C3.87614 0.195801 4.37565 0.249512 4.78027 0.356934C5.1849 0.464355 5.51074 0.614746 5.75781 0.808105C6.00846 0.997884 6.1875 1.22705 6.29492 1.49561C6.40592 1.76058 6.46143 2.05241 6.46143 2.37109C6.46143 2.67188 6.4113 2.96549 6.31104 3.25195C6.21077 3.53841 6.03532 3.79443 5.78467 4.02002C5.5376 4.24561 5.20459 4.42643 4.78564 4.5625C4.37028 4.69857 3.8457 4.7666 3.21191 4.7666H2.4707V7.57031H3.59863V8H0.349121V7.57031H1.42334V0.625488H0.349121V0.195801H3.28174ZM2.4707 4.33691H3.13135C3.54313 4.33691 3.88867 4.30648 4.16797 4.24561C4.45085 4.18115 4.67643 4.07373 4.84473 3.92334C5.01302 3.77295 5.13298 3.57422 5.20459 3.32715C5.27979 3.0765 5.31738 2.76497 5.31738 2.39258C5.31738 2.08464 5.28874 1.81966 5.23145 1.59766C5.17773 1.37565 5.07389 1.19303 4.91992 1.0498C4.76595 0.902995 4.55111 0.795573 4.27539 0.727539C4.00326 0.659505 3.65055 0.625488 3.21729 0.625488H2.4707V4.33691ZM10.1729 0.195801C10.7422 0.195801 11.222 0.23877 11.6123 0.324707C12.0026 0.410645 12.3177 0.532389 12.5576 0.689941C12.7975 0.847493 12.9694 1.03906 13.0732 1.26465C13.1771 1.48665 13.229 1.73372 13.229 2.00586C13.229 2.24219 13.1914 2.46598 13.1162 2.67725C13.0446 2.88851 12.9354 3.08008 12.7886 3.25195C12.6418 3.42383 12.4574 3.57243 12.2354 3.69775C12.0169 3.8195 11.7591 3.9126 11.4619 3.97705V3.99854C11.709 4.05583 11.9113 4.13997 12.0688 4.25098C12.23 4.36198 12.3589 4.49805 12.4556 4.65918C12.5558 4.82031 12.6328 5.00472 12.6865 5.2124C12.7438 5.4165 12.7939 5.64209 12.8369 5.88916C12.8799 6.14339 12.9175 6.37614 12.9497 6.5874C12.9855 6.79508 13.0321 6.97591 13.0894 7.12988C13.1466 7.28027 13.2236 7.39844 13.3203 7.48438C13.4206 7.56673 13.5584 7.60791 13.7339 7.60791C13.7661 7.60791 13.8109 7.60612 13.8682 7.60254C13.929 7.59896 13.9953 7.5918 14.0669 7.58105V7.99463C14.006 8.00895 13.9398 8.02148 13.8682 8.03223C13.7965 8.04297 13.7231 8.05013 13.6479 8.05371C13.5763 8.06087 13.5047 8.06445 13.4331 8.06445C13.3651 8.06803 13.3042 8.06982 13.2505 8.06982C12.939 8.06982 12.6937 8.0376 12.5146 7.97314C12.3392 7.90511 12.2031 7.80127 12.1064 7.66162C12.0133 7.52197 11.9471 7.34652 11.9077 7.13525C11.8683 6.92399 11.8307 6.67334 11.7949 6.3833C11.7412 5.96077 11.6875 5.60628 11.6338 5.31982C11.5801 5.03337 11.5049 4.8042 11.4082 4.63232C11.3115 4.45687 11.1808 4.33333 11.0161 4.26172C10.8514 4.18652 10.6276 4.14893 10.3447 4.14893H9.33496V7.57031H10.4629V8H7.21338V7.57031H8.2876V0.625488H7.21338V0.195801H10.1729ZM9.33496 3.71924H10.0493C10.436 3.71924 10.7583 3.68701 11.0161 3.62256C11.2775 3.55811 11.487 3.45785 11.6445 3.32178C11.8057 3.18213 11.9185 3.00667 11.9829 2.79541C12.0509 2.58057 12.085 2.32275 12.085 2.02197C12.085 1.77132 12.0581 1.55827 12.0044 1.38281C11.9507 1.20378 11.8504 1.05876 11.7036 0.947754C11.5604 0.836751 11.3599 0.756185 11.1021 0.706055C10.8478 0.652344 10.5166 0.625488 10.1084 0.625488H9.33496V3.71924ZM16.7256 0.625488V7.57031H17.7998V8H14.604V7.57031H15.6782V0.625488H14.604V0.195801H17.7998V0.625488H16.7256ZM25.1099 8.08057H24.6802L20.0342 0.87793L20.0073 0.883301V7.57031H20.9741V8H18.4497V7.57031H19.5239V0.625488H18.4497V0.195801H20.8506L24.5996 6.00732L24.6265 6.00195V0.625488H23.5522V0.195801H26.1841V0.625488H25.1099V8.08057ZM33.0913 5.66357L33.0161 7.79053C32.8442 7.8514 32.658 7.9069 32.4575 7.95703C32.2606 8.00358 32.0601 8.04297 31.856 8.0752C31.6519 8.111 31.4495 8.13786 31.249 8.15576C31.0521 8.17367 30.8677 8.18262 30.6958 8.18262C30.1479 8.18262 29.6538 8.08952 29.2134 7.90332C28.7765 7.71712 28.4041 7.45215 28.0962 7.1084C27.7918 6.76107 27.5573 6.34033 27.3926 5.84619C27.2314 5.35205 27.1509 4.79525 27.1509 4.17578C27.1509 3.54199 27.2368 2.96908 27.4087 2.45703C27.5806 1.94499 27.8258 1.50814 28.1445 1.14648C28.4632 0.78125 28.8481 0.501953 29.2993 0.308594C29.7541 0.111654 30.2607 0.0131836 30.8193 0.0131836C30.9769 0.0131836 31.1434 0.0221354 31.3188 0.0400391C31.4943 0.054362 31.6715 0.0776367 31.8506 0.109863C32.0332 0.138509 32.2122 0.174316 32.3877 0.217285C32.5667 0.260254 32.7386 0.308594 32.9033 0.362305L32.9678 2.32275H32.5918C32.5596 1.93245 32.488 1.61556 32.377 1.37207C32.2695 1.125 32.1335 0.933431 31.9688 0.797363C31.804 0.661296 31.6178 0.568197 31.4102 0.518066C31.2025 0.467936 30.9823 0.442871 30.7495 0.442871C30.5132 0.442871 30.2894 0.464355 30.0781 0.507324C29.8669 0.550293 29.6699 0.625488 29.4873 0.73291C29.3083 0.840332 29.1453 0.983561 28.9985 1.1626C28.8553 1.34163 28.7336 1.56901 28.6333 1.84473C28.533 2.12044 28.4543 2.44808 28.397 2.82764C28.3433 3.20361 28.3164 3.64225 28.3164 4.14355C28.3164 4.64128 28.3433 5.07633 28.397 5.44873C28.4507 5.81755 28.5259 6.13623 28.6226 6.40479C28.7228 6.67334 28.8428 6.89535 28.9824 7.0708C29.1257 7.24268 29.2832 7.38053 29.4551 7.48438C29.6305 7.58464 29.8203 7.65446 30.0244 7.69385C30.2285 7.73324 30.4434 7.75293 30.6689 7.75293C30.9411 7.75293 31.1917 7.72249 31.4209 7.66162C31.6536 7.59717 31.8577 7.48617 32.0332 7.32861C32.2122 7.17106 32.359 6.95801 32.4736 6.68945C32.5918 6.4209 32.6724 6.07894 32.7153 5.66357H33.0913ZM36.3193 3.73535H37.0229C37.2629 3.73535 37.4634 3.7264 37.6245 3.7085C37.7856 3.69059 37.9146 3.64046 38.0112 3.55811C38.1115 3.47217 38.1867 3.34147 38.2368 3.16602C38.2869 2.98698 38.3228 2.73633 38.3442 2.41406H38.7256V5.59375H38.3442C38.3263 5.2679 38.2959 5.01188 38.2529 4.82568C38.21 4.6359 38.1401 4.49268 38.0435 4.396C37.9468 4.29932 37.8161 4.23844 37.6514 4.21338C37.4902 4.18831 37.2808 4.17578 37.0229 4.17578H36.3193V7.57031H37.7427C38.022 7.57031 38.2673 7.55957 38.4785 7.53809C38.6898 7.5166 38.8742 7.47721 39.0317 7.41992C39.1893 7.36263 39.3236 7.28206 39.4346 7.17822C39.5492 7.07438 39.6476 6.9401 39.73 6.77539C39.8123 6.61068 39.8822 6.41016 39.9395 6.17383C39.9967 5.9375 40.0505 5.6582 40.1006 5.33594H40.4766L40.3691 8H34.1978V7.57031H35.272V0.625488H34.1978V0.195801H40.2349L40.3423 2.34961H39.9663C39.9126 1.99154 39.8464 1.7015 39.7676 1.47949C39.6888 1.25391 39.5778 1.07845 39.4346 0.953125C39.2949 0.824219 39.1105 0.738281 38.8813 0.695312C38.6558 0.648763 38.3693 0.625488 38.022 0.625488H36.3193V3.73535ZM44.4888 0.195801C45.0832 0.195801 45.5827 0.249512 45.9873 0.356934C46.3919 0.464355 46.7178 0.614746 46.9648 0.808105C47.2155 0.997884 47.3945 1.22705 47.502 1.49561C47.613 1.76058 47.6685 2.05241 47.6685 2.37109C47.6685 2.67188 47.6183 2.96549 47.5181 3.25195C47.4178 3.53841 47.2424 3.79443 46.9917 4.02002C46.7446 4.24561 46.4116 4.42643 45.9927 4.5625C45.5773 4.69857 45.0527 4.7666 44.4189 4.7666H43.6777V7.57031H44.8057V8H41.5562V7.57031H42.6304V0.625488H41.5562V0.195801H44.4888ZM43.6777 4.33691H44.3384C44.7502 4.33691 45.0957 4.30648 45.375 4.24561C45.6579 4.18115 45.8835 4.07373 46.0518 3.92334C46.2201 3.77295 46.34 3.57422 46.4116 3.32715C46.4868 3.0765 46.5244 2.76497 46.5244 2.39258C46.5244 2.08464 46.4958 1.81966 46.4385 1.59766C46.3848 1.37565 46.2809 1.19303 46.127 1.0498C45.973 0.902995 45.7581 0.795573 45.4824 0.727539C45.2103 0.659505 44.8576 0.625488 44.4243 0.625488H43.6777V4.33691ZM51.5142 5.66357H51.8901C51.9295 6.07178 52.0083 6.41195 52.1265 6.68408C52.2446 6.95622 52.3896 7.17285 52.5615 7.33398C52.737 7.49512 52.9357 7.6097 53.1577 7.67773C53.3833 7.74219 53.6214 7.77441 53.8721 7.77441C54.1729 7.77441 54.4289 7.73682 54.6401 7.66162C54.855 7.58643 55.0304 7.48258 55.1665 7.3501C55.3062 7.21403 55.4064 7.0529 55.4673 6.8667C55.5317 6.67692 55.564 6.46924 55.564 6.24365C55.564 5.96436 55.5174 5.73519 55.4243 5.55615C55.3312 5.37354 55.2005 5.21956 55.0322 5.09424C54.8675 4.96533 54.6688 4.85433 54.436 4.76123C54.2033 4.66813 53.9473 4.57145 53.668 4.47119C53.3887 4.37093 53.1219 4.2653 52.8677 4.1543C52.617 4.04329 52.395 3.90544 52.2017 3.74072C52.0083 3.57601 51.8543 3.37549 51.7397 3.13916C51.6287 2.89925 51.5732 2.60205 51.5732 2.24756C51.5732 1.91455 51.627 1.61019 51.7344 1.33447C51.8418 1.05876 52.0011 0.824219 52.2124 0.630859C52.4237 0.433919 52.6851 0.281738 52.9966 0.174316C53.3117 0.0668945 53.6769 0.0131836 54.0923 0.0131836C54.257 0.0131836 54.4271 0.0221354 54.6025 0.0400391C54.778 0.054362 54.9517 0.0776367 55.1235 0.109863C55.299 0.14209 55.4709 0.181478 55.6392 0.228027C55.8075 0.270996 55.9668 0.319336 56.1172 0.373047L56.1816 2.32275H55.8057C55.7734 1.93604 55.7018 1.62093 55.5908 1.37744C55.4798 1.13395 55.3438 0.944173 55.1826 0.808105C55.0251 0.668457 54.8478 0.573568 54.6509 0.523438C54.4575 0.469727 54.2588 0.442871 54.0547 0.442871C53.7826 0.442871 53.5462 0.476888 53.3457 0.544922C53.1452 0.609375 52.9787 0.704264 52.8462 0.82959C52.7137 0.951335 52.6134 1.10173 52.5454 1.28076C52.481 1.45622 52.4487 1.65495 52.4487 1.87695C52.4487 2.14193 52.4953 2.36214 52.5884 2.5376C52.6815 2.71305 52.8122 2.86523 52.9805 2.99414C53.1523 3.11947 53.3564 3.23226 53.5928 3.33252C53.8327 3.4292 54.0959 3.53125 54.3823 3.63867C54.6437 3.73893 54.8997 3.84635 55.1504 3.96094C55.4046 4.07194 55.6302 4.21338 55.8271 4.38525C56.0277 4.55355 56.1888 4.76302 56.3105 5.01367C56.4323 5.26074 56.4932 5.56868 56.4932 5.9375C56.4932 6.29557 56.4305 6.61426 56.3052 6.89355C56.1834 7.17285 56.0062 7.40739 55.7734 7.59717C55.5443 7.78695 55.2632 7.93197 54.9302 8.03223C54.5972 8.13249 54.2212 8.18262 53.8022 8.18262C53.6196 8.18262 53.4299 8.17367 53.2329 8.15576C53.0396 8.13786 52.8462 8.111 52.6528 8.0752C52.4631 8.03939 52.2769 7.99821 52.0942 7.95166C51.9116 7.90511 51.7415 7.8514 51.584 7.79053L51.5142 5.66357ZM57.4546 0.195801H63.7495L63.8784 2.51074H63.5024C63.4523 2.1097 63.3879 1.78564 63.3091 1.53857C63.2303 1.2915 63.1175 1.10173 62.9707 0.969238C62.8275 0.833171 62.6413 0.741862 62.4121 0.695312C62.1829 0.648763 61.8947 0.625488 61.5474 0.625488H61.1123V7.57031H62.2939V8H58.8833V7.57031H60.0649V0.625488H59.6567C59.424 0.625488 59.2181 0.63444 59.0391 0.652344C58.86 0.670247 58.7025 0.704264 58.5664 0.754395C58.4339 0.804525 58.3193 0.874349 58.2227 0.963867C58.126 1.05339 58.0436 1.16797 57.9756 1.30762C57.9076 1.44727 57.8485 1.61556 57.7983 1.8125C57.7518 2.00944 57.7106 2.24219 57.6748 2.51074H57.2988L57.4546 0.195801ZM66.6499 5.47559C66.6499 5.78353 66.6624 6.07357 66.6875 6.3457C66.7161 6.61784 66.7896 6.85596 66.9077 7.06006C67.0295 7.26416 67.2121 7.42708 67.4556 7.54883C67.7026 7.66699 68.0446 7.72607 68.4814 7.72607C68.9255 7.72607 69.2835 7.6652 69.5557 7.54346C69.8278 7.41813 70.0373 7.24805 70.1841 7.0332C70.3345 6.81478 70.4347 6.55876 70.4849 6.26514C70.535 5.96794 70.5601 5.64746 70.5601 5.30371V0.625488H69.4858V0.195801H72.1123V0.625488H71.0435V5.24463C71.0435 5.72445 71.0041 6.14697 70.9253 6.51221C70.8465 6.87744 70.7051 7.18359 70.501 7.43066C70.2969 7.67773 70.0212 7.86572 69.6738 7.99463C69.3265 8.11995 68.8843 8.18262 68.3472 8.18262C67.8674 8.18262 67.4538 8.1307 67.1064 8.02686C66.7591 7.92301 66.4744 7.76188 66.2524 7.54346C66.0304 7.32503 65.8657 7.04753 65.7583 6.71094C65.6545 6.37077 65.6025 5.96794 65.6025 5.50244V0.625488H64.5283V0.195801H67.7241V0.625488H66.6499V5.47559ZM72.6763 8V7.57031H73.7505V0.625488H72.6763V0.195801H75.9204C76.6437 0.195801 77.2489 0.285319 77.7358 0.464355C78.2264 0.643392 78.6203 0.899414 78.9175 1.23242C79.2147 1.56185 79.4259 1.9611 79.5513 2.43018C79.6802 2.89925 79.7446 3.42383 79.7446 4.00391C79.7446 4.34049 79.7214 4.6735 79.6748 5.00293C79.6318 5.32878 79.5549 5.6403 79.4438 5.9375C79.3328 6.23112 79.1825 6.50505 78.9927 6.75928C78.8065 7.00993 78.5684 7.22835 78.2783 7.41455C77.9883 7.59717 77.6427 7.7404 77.2417 7.84424C76.8407 7.94808 76.3734 8 75.8398 8H72.6763ZM74.7979 7.57031H75.77C76.3215 7.57031 76.778 7.5166 77.1396 7.40918C77.5049 7.30176 77.7931 7.11377 78.0044 6.84521C78.2157 6.57666 78.3643 6.21322 78.4502 5.75488C78.5361 5.29655 78.5791 4.71647 78.5791 4.01465C78.5791 3.63151 78.5648 3.2806 78.5361 2.96191C78.5111 2.64323 78.4627 2.35856 78.3911 2.10791C78.3195 1.85726 78.2192 1.63883 78.0903 1.45264C77.965 1.26644 77.8021 1.11247 77.6016 0.990723C77.4046 0.868978 77.1647 0.777669 76.8818 0.716797C76.599 0.655924 76.266 0.625488 75.8828 0.625488H74.7979V7.57031ZM82.9404 0.625488V7.57031H84.0146V8H80.8188V7.57031H81.8931V0.625488H80.8188V0.195801H84.0146V0.625488H82.9404ZM85.0942 4.17041C85.0942 3.52946 85.1802 2.95296 85.3521 2.44092C85.5275 1.92887 85.771 1.49382 86.0825 1.13574C86.394 0.774089 86.7646 0.496582 87.1943 0.303223C87.6276 0.109863 88.1021 0.0131836 88.6177 0.0131836C89.1261 0.0131836 89.5881 0.108073 90.0034 0.297852C90.4224 0.484049 90.7804 0.750814 91.0776 1.09814C91.3748 1.44548 91.604 1.86621 91.7651 2.36035C91.9299 2.85449 92.0122 3.40771 92.0122 4.02002C92.0122 4.62158 91.9316 5.17839 91.7705 5.69043C91.613 6.19889 91.3838 6.63753 91.083 7.00635C90.7822 7.37516 90.4134 7.66341 89.9766 7.87109C89.5433 8.07878 89.0527 8.18262 88.5049 8.18262C87.9893 8.18262 87.522 8.08952 87.103 7.90332C86.6841 7.71712 86.326 7.45036 86.0288 7.10303C85.7316 6.7557 85.5007 6.33496 85.3359 5.84082C85.1748 5.3431 85.0942 4.7863 85.0942 4.17041ZM86.2598 4.13818C86.2598 4.63232 86.2848 5.06559 86.335 5.43799C86.3887 5.8068 86.4621 6.12549 86.5552 6.39404C86.6519 6.65902 86.7682 6.87923 86.9043 7.05469C87.0404 7.23014 87.1925 7.36979 87.3608 7.47363C87.5291 7.57747 87.7118 7.65088 87.9087 7.69385C88.1056 7.73324 88.3133 7.75293 88.5317 7.75293C88.7502 7.75293 88.9578 7.73324 89.1548 7.69385C89.3553 7.65088 89.5415 7.57747 89.7134 7.47363C89.8853 7.36621 90.041 7.22298 90.1807 7.04395C90.3203 6.86491 90.4385 6.63932 90.5352 6.36719C90.6354 6.09147 90.7124 5.76562 90.7661 5.38965C90.8198 5.01009 90.8467 4.56787 90.8467 4.06299C90.8467 3.56885 90.8198 3.13737 90.7661 2.76855C90.716 2.39616 90.6426 2.07568 90.5459 1.80713C90.4528 1.53857 90.3382 1.31657 90.2021 1.14111C90.0661 0.965658 89.9139 0.826009 89.7456 0.722168C89.5809 0.618327 89.4001 0.546712 89.2031 0.507324C89.0062 0.464355 88.7985 0.442871 88.5801 0.442871C88.3617 0.442871 88.1522 0.464355 87.9517 0.507324C87.7511 0.550293 87.5649 0.623698 87.3931 0.727539C87.2212 0.83138 87.0654 0.974609 86.9258 1.15723C86.7861 1.33626 86.6662 1.56185 86.5659 1.83398C86.4692 2.10612 86.394 2.43197 86.3403 2.81152C86.2866 3.19108 86.2598 3.6333 86.2598 4.13818Z" fill="black"/>
</svg>
